<svg xmlns="http://www.w3.org/2000/svg" height="20" width="20"><path d="M10 18q-1.458 0-2.729-.552-1.271-.552-2.219-1.5t-1.5-2.219Q3 12.458 3 11q0-1.458.552-2.729.552-1.271 1.5-2.219t2.219-1.5Q8.542 4 10 4q1.458 0 2.729.552 1.271.552 2.219 1.5t1.5 2.219Q17 9.542 17 11q0 1.458-.552 2.729-.552 1.271-1.5 2.219t-2.219 1.5Q11.458 18 10 18Zm0-7Zm2.083 2.833 1.063-1.062-2.396-2.396V7h-1.5v4ZM4.938 2.396 6 3.458 2.458 7 1.396 5.938Zm10.124 0 3.542 3.542L17.542 7 14 3.458ZM10 16.5q2.292 0 3.896-1.604T15.5 11q0-2.292-1.604-3.896T10 5.5q-2.292 0-3.896 1.604T4.5 11q0 2.292 1.604 3.896T10 16.5Z"/></svg>