<svg xmlns="http://www.w3.org/2000/svg" height="20" width="20"><path d="m12.792 13.542 1.062-1.063-3.104-3.104V5h-1.5v5ZM10 18q-1.646 0-3.104-.625-1.458-.625-2.552-1.719t-1.719-2.552Q2 11.646 2 10q0-1.667.625-3.125t1.719-2.542Q5.438 3.25 6.896 2.625T10 2q1.667 0 3.125.625t2.542 1.708q1.083 1.084 1.708 2.542Q18 8.333 18 10q0 1.646-.625 3.104-.625 1.458-1.708 2.552-1.084 1.094-2.542 1.719Q11.667 18 10 18Zm0-8Zm0 6.5q2.708 0 4.604-1.906T16.5 10q0-2.708-1.896-4.604T10 3.5q-2.688 0-4.594 1.896Q3.5 7.292 3.5 10q0 2.688 1.906 4.594Q7.312 16.5 10 16.5Z"/></svg>